HIERARCHY
ROOT Hips
{
 OFFSET 0.000000 0.000000 0.000000
 CHANNELS 6 Xposition Yposition Zposition Yrotation Xrotation Zrotation
 JOINT Chest
 {
  OFFSET 0.000000 10.383400 0.001500
  CHANNELS 3 Yrotation Xrotation Zrotation
  JOINT Chest2
  {
   OFFSET 0.000000 10.418200 -0.003100
   CHANNELS 3 Yrotation Xrotation Zrotation
   JOINT Chest3
   {
    OFFSET 0.000000 10.375100 0.000000
    CHANNELS 3 Yrotation Xrotation Zrotation
    JOINT Chest4
    {
     OFFSET 0.000000 10.364600 0.000000
     CHANNELS 3 Yrotation Xrotation Zrotation
     JOINT Neck
     {
      OFFSET 0.000000 15.642200 0.000000
      CHANNELS 3 Yrotation Xrotation Zrotation
      JOINT Head
      {
       OFFSET 0.000000 9.697300 -0.006500
       CHANNELS 3 Yrotation Xrotation Zrotation
       End Site
       {
        OFFSET 0.000000 18.492200 -0.003400
       }
      }
     }
     JOINT RightCollar
     {
      OFFSET -3.166800 10.349300 0.000000
      CHANNELS 3 Yrotation Xrotation Zrotation
      JOINT RightShoulder
      {
       OFFSET -14.729700 0.000000 0.000000
       CHANNELS 3 Yrotation Xrotation Zrotation
       JOINT RightElbow
       {
        OFFSET 0.000000 -32.224300 0.000000
        CHANNELS 3 Yrotation Xrotation Zrotation
        JOINT RightWrist
        {
         OFFSET 0.000000 -26.084100 0.000000
         CHANNELS 3 Yrotation Xrotation Zrotation
         End Site
         {
          OFFSET 0.000000 -19.319400 0.000000
         }
        }
       }
      }
     }
     JOINT LeftCollar
     {
      OFFSET 3.166800 10.349300 0.000000
      CHANNELS 3 Yrotation Xrotation Zrotation
      JOINT LeftShoulder
      {
       OFFSET 14.729700 0.000000 0.000000
       CHANNELS 3 Yrotation Xrotation Zrotation
       JOINT LeftElbow
       {
        OFFSET 0.000000 -32.224300 0.000000
        CHANNELS 3 Yrotation Xrotation Zrotation
        JOINT LeftWrist
        {
         OFFSET 0.000000 -26.084100 0.000000
         CHANNELS 3 Yrotation Xrotation Zrotation
         End Site
         {
          OFFSET 0.000000 -19.319400 0.000000
         }
        }
       }
      }
     }
    }
   }
  }
 }
 JOINT RightHip
 {
  OFFSET -8.428900 -0.007500 -0.000800
  CHANNELS 3 Yrotation Xrotation Zrotation
  JOINT RightKnee
  {
   OFFSET 0.000000 -43.834600 0.000700
   CHANNELS 3 Yrotation Xrotation Zrotation
   JOINT RightAnkle
   {
    OFFSET 0.000000 -42.757000 0.001200
    CHANNELS 3 Yrotation Xrotation Zrotation
    JOINT RightToe
    {
     OFFSET 0.000000 -6.946900 15.649300
     CHANNELS 3 Yrotation Xrotation Zrotation
     End Site
     {
      OFFSET 0.000000 -1.580800 6.825800
     }
    }
   }
  }
 }
 JOINT LeftHip
 {
  OFFSET 8.428900 -0.007500 -0.000800
  CHANNELS 3 Yrotation Xrotation Zrotation
  JOINT LeftKnee
  {
   OFFSET 0.000000 -43.834600 0.000700
   CHANNELS 3 Yrotation Xrotation Zrotation
   JOINT LeftAnkle
   {
    OFFSET 0.000000 -42.757000 0.001200
    CHANNELS 3 Yrotation Xrotation Zrotation
    JOINT LeftToe
    {
     OFFSET 0.000000 -6.946900 15.649300
     CHANNELS 3 Yrotation Xrotation Zrotation
     End Site
     {
      OFFSET 0.000000 -1.580800 6.825800
     }
    }
   }
  }
 }
}
MOTION
Frames: 12
Frame Time: 0.008333
124.826053 127.246717 29.692143 -14.269302 -35.894915 -2.417334 -2.988555 19.045670 1.419277 -0.378234 2.273855 0.220582 -0.633093 3.691961 0.361459 -2.590213 16.529744 1.274725 3.190229 13.374380 -1.248290 6.527575 -10.816825 -3.627374 -8.755731 -4.159234 -10.279527 -13.924112 7.941569 -4.650909 -5.384625 -41.946749 9.358095 -5.339519 -4.871899 8.333934 2.571905 -5.046388 2.811689 14.502981 3.246061 2.967666 3.167290 -29.368993 -9.937913 0.921163 -9.991499 0.085747 -0.108087 -34.487536 -5.360915 -29.489980 78.586660 -26.066792 3.504942 -0.073534 6.337794 0.001187 -0.006609 0.000527 -13.846700 -29.295268 -4.569431 13.851776 73.853696 16.723140 -11.027227 -2.036427 -9.829810 0.004205 0.004268 0.001867
124.827265 127.246758 29.695817 -14.238846 -35.876635 -2.438226 -2.995615 19.057358 1.423557 -0.373113 2.289093 0.219459 -0.620465 3.755098 0.356658 -2.603874 16.491616 1.287116 3.222359 13.395284 -1.244002 6.585293 -10.776416 -3.630472 -8.770785 -4.203736 -10.271243 -13.932600 7.934286 -4.638656 -5.381750 -41.959096 9.363383 -5.367585 -4.938028 8.284339 2.543196 -5.064586 2.838410 14.567612 3.260883 2.954702 3.100138 -29.400479 -9.963747 0.887851 -9.997855 0.114337 -0.129832 -34.498220 -5.354213 -29.507737 78.585588 -26.085627 3.500672 -0.098877 6.327820 -0.000063 -0.010091 -0.000028 -13.850588 -29.300585 -4.567847 13.806498 73.852891 16.690881 -11.017611 -2.067736 -9.817746 0.008764 0.007828 0.003891
124.828227 127.247288 29.700526 -14.221456 -35.863731 -2.451359 -3.002737 19.054795 1.427493 -0.355959 2.323093 0.213861 -0.621603 3.761904 0.357512 -2.605806 16.504456 1.288969 3.249071 13.418030 -1.236819 6.631431 -10.733129 -3.625741 -8.790603 -4.243272 -10.261901 -13.956494 7.955450 -4.645050 -5.394169 -41.994912 9.380783 -5.398324 -5.017559 8.256360 2.510321 -5.077024 2.867880 14.625649 3.271095 2.941346 2.996202 -29.414489 -9.980269 0.879533 -10.025446 0.170303 -0.143254 -34.506015 -5.347297 -29.530266 78.583270 -26.108191 3.498315 -0.105775 6.327842 0.000656 -0.010799 0.000291 -13.859716 -29.305593 -4.562824 13.782222 73.856302 16.665094 -11.013329 -2.094979 -9.797677 0.008936 0.005686 0.003967
124.829344 127.247857 29.705775 -14.201800 -35.851883 -2.464110 -2.991501 19.082400 1.431191 -0.363098 2.316516 0.214688 -0.617532 3.777124 0.355405 -2.614148 16.487060 1.296879 3.275547 13.469753 -1.235611 6.668169 -10.689065 -3.616797 -8.809315 -4.236283 -10.277215 -13.972949 7.958899 -4.641646 -5.421311 -42.033170 9.403113 -5.409142 -5.049239 8.263752 2.487280 -5.075321 2.881447 14.683702 3.322393 2.956364 2.916537 -29.478801 -10.016418 0.856004 -10.028481 0.229375 -0.161145 -34.508003 -5.328980 -29.570884 78.582031 -26.163566 3.492589 -0.133412 6.329797 0.001855 -0.008758 0.000824 -13.869878 -29.309871 -4.559808 13.741422 73.861892 16.621548 -11.007111 -2.122296 -9.771729 0.008757 0.003390 0.003888
124.830999 127.247375 29.710089 -14.161712 -35.830349 -2.487009 -2.973737 19.137607 1.428603 -0.402952 2.251005 0.232602 -0.601936 3.811372 0.347456 -2.623046 16.471188 1.304613 3.298019 13.517162 -1.234312 6.694959 -10.648814 -3.604932 -8.854551 -4.199040 -10.322867 -13.959155 7.926633 -4.595326 -5.428916 -42.057672 9.432370 -5.474631 -5.174465 8.190435 2.445491 -5.079289 2.883423 14.730045 3.353260 2.979807 2.874907 -29.528593 -10.037484 0.858458 -10.030696 0.262540 -0.215214 -34.516789 -5.283759 -29.666612 78.578641 -26.310331 3.473174 -0.173209 6.354183 -0.000280 -0.000097 -0.000124 -13.894326 -29.324371 -4.559878 13.683681 73.869820 16.567193 -10.995814 -2.153760 -9.747411 0.008878 0.003184 0.003941
124.832101 127.246642 29.714156 -14.132091 -35.807125 -2.506950 -2.984204 19.133492 1.431822 -0.394254 2.271911 0.228011 -0.610523 3.794351 0.353007 -2.596438 16.553499 1.283055 3.298984 13.480985 -1.208502 6.710554 -10.615152 -3.587645 -8.906476 -4.268920 -10.296038 -13.981315 7.941135 -4.625569 -5.465432 -42.104206 9.507290 -5.510023 -5.241609 8.155193 2.371173 -5.164030 2.909763 14.754765 3.368408 3.002134 2.855447 -29.561420 -10.047098 0.862921 -10.031577 0.289610 -0.252507 -34.534365 -5.259174 -29.722995 78.578265 -26.388540 3.475754 -0.189841 6.346228 0.001007 -0.000974 0.000447 -13.922329 -29.344220 -4.562688 13.670276 73.879603 16.554980 -10.977521 -2.174935 -9.733129 0.004522 0.003639 0.002007
124.833577 127.245073 29.717402 -14.102158 -35.776912 -2.526158 -2.993979 19.122563 1.434827 -0.361948 2.333252 0.209182 -0.641162 3.736556 0.374021 -2.590422 16.568455 1.277211 3.299813 13.476996 -1.196328 6.715642 -10.599921 -3.577163 -8.930932 -4.289129 -10.286281 -13.979073 7.935645 -4.617565 -5.516792 -42.151803 9.519606 -5.559437 -5.323736 8.083070 2.312304 -5.181265 2.923809 14.767697 3.381761 3.024156 2.863632 -29.588918 -10.062228 0.796550 -10.037754 0.318061 -0.283405 -34.561617 -5.247436 -29.756642 78.579941 -26.431020 3.475841 -0.192802 6.343485 0.002698 -0.003394 0.001198 -13.954333 -29.375076 -4.563787 13.691389 73.887415 16.575876 -10.973717 -2.192268 -9.721607 0.001464 0.001969 0.000650
124.835531 127.240872 29.717017 -14.072307 -35.721787 -2.547910 -2.978627 19.145272 1.429363 -0.379265 2.296640 0.222726 -0.636983 3.738226 0.372978 -2.584946 16.575963 1.278104 3.310195 13.504925 -1.187909 6.722025 -10.571522 -3.551553 -8.959220 -4.321440 -10.269678 -13.995970 7.939573 -4.637129 -5.567255 -42.205420 9.570901 -5.602702 -5.400692 7.999877 2.239079 -5.205968 2.942360 14.804645 3.373230 3.038135 2.836593 -29.600599 -10.056326 0.781516 -10.073127 0.312847 -0.316286 -34.615167 -5.230757 -29.805022 78.590262 -26.496976 3.474769 -0.208974 6.355857 0.000226 -0.001862 0.000100 -13.989187 -29.427455 -4.560756 13.720467 73.894104 16.606716 -10.953369 -2.237713 -9.692610 -0.001285 -0.002873 -0.000570
124.836812 127.239305 29.720220 -14.059056 -35.692538 -2.559237 -2.971515 19.154596 1.429364 -0.382675 2.288106 0.225331 -0.619004 3.785689 0.358822 -2.582587 16.561721 1.287578 3.313814 13.516559 -1.177391 6.724049 -10.550362 -3.532250 -8.997969 -4.355062 -10.261528 -14.035376 7.941466 -4.669529 -5.602344 -42.265970 9.650739 -5.624230 -5.445559 7.935678 2.171773 -5.248064 2.963274 14.831830 3.369123 3.055590 2.796076 -29.616485 -10.047303 0.820277 -10.097294 0.307778 -0.328284 -34.644701 -5.211867 -29.875285 78.597860 -26.587530 3.470313 -0.216081 6.366296 -0.000739 -0.001939 -0.000328 -13.998244 -29.454862 -4.563790 13.719994 73.909526 16.604123 -10.918788 -2.266365 -9.671147 -0.003143 -0.003204 -0.001395
124.838243 127.237167 29.722466 -14.034510 -35.657561 -2.578295 -2.982028 19.139659 1.433951 -0.386505 2.278662 0.227968 -0.607244 3.819288 0.350213 -2.585747 16.543759 1.295042 3.316743 13.549790 -1.179205 6.722089 -10.539910 -3.523532 -9.036184 -4.336911 -10.306270 -14.045085 7.926436 -4.640812 -5.626483 -42.331017 9.693514 -5.631355 -5.476818 7.876322 2.140409 -5.262620 2.970648 14.750176 3.404630 3.092296 2.869934 -29.663609 -10.075712 0.854003 -10.119274 0.298562 -0.347862 -34.680432 -5.195606 -29.928993 78.609608 -26.660358 3.477893 -0.214502 6.366473 0.000367 0.001643 0.000163 -14.020420 -29.487154 -4.559199 13.755174 73.913395 16.638863 -10.912524 -2.289183 -9.660190 0.000926 -0.003228 0.000411
124.841289 127.235910 29.726275 -14.010054 -35.631744 -2.587253 -2.995243 19.134150 1.427575 -0.378385 2.300762 0.222733 -0.609843 3.824156 0.353613 -2.582897 16.566487 1.292332 3.312566 13.537580 -1.174499 6.717668 -10.537749 -3.521564 -9.055632 -4.389595 -10.298690 -14.075922 7.928214 -4.646815 -5.646444 -42.399883 9.723054 -5.622251 -5.495994 7.823868 2.103504 -5.322460 2.986465 14.698749 3.427038 3.119220 2.922931 -29.700067 -10.097314 0.865922 -10.153461 0.259314 -0.351020 -34.706730 -5.198974 -29.969591 78.629348 -26.726050 3.473235 -0.231428 6.401644 -0.008283 -0.000098 -0.003677 -14.033040 -29.512769 -4.567863 13.794711 73.915891 16.678407 -10.921128 -2.308456 -9.648197 0.004777 -0.003869 0.002121
124.843204 127.234918 29.729783 -13.991342 -35.608487 -2.599938 -2.994563 19.148876 1.428879 -0.369058 2.336577 0.218080 -0.618397 3.811226 0.358308 -2.586379 16.580133 1.294254 3.309716 13.506376 -1.172689 6.715039 -10.553464 -3.521726 -9.063244 -4.456083 -10.281354 -14.116478 7.933566 -4.666488 -5.656888 -42.455705 9.751983 -5.611547 -5.529485 7.774608 1.997417 -5.361563 2.993132 14.772827 3.408258 3.136055 2.945020 -29.715427 -10.108128 0.800322 -10.257908 0.171270 -0.325738 -34.733236 -5.212984 -30.043020 78.642297 -26.786175 3.471201 -0.223761 6.412966 -0.009005 -0.003850 -0.003997 -13.988448 -29.530191 -4.587217 13.795571 73.926685 16.707447 -10.932012 -2.334223 -9.617410 0.000524 -0.000704 0.000233
